<svg xmlns="http://www.w3.org/2000/svg" viewBox="0 0 483.42 482.67"><defs><style>.cls-1{fill:#fff;}.cls-2{fill:#0088c2;}.cls-3{fill:none;stroke:#fff;stroke-linecap:round;stroke-miterlimit:10;stroke-width:3px;}.cls-4{fill:#1fabe3;}</style></defs><g id="Layer_2" data-name="Layer 2"><g id="FinalImage"><circle class="cls-1" cx="241.71" cy="241.72" r="240.94"/><path class="cls-2" d="M241.71,0C108.22,0,0,108.22,0,241.72,0,351,72.47,443.27,172,473.21c5.66-3.14,10.8-6.12,11.8-7.12,2.37-2.37,2.61-7.36,2.61-7.36V416s0-.51,0-1.4c-15.07,2.36-40.87,4.94-54.21-2.16-18.3-9.74-19.41-14.28-31.36-36.24C89.15,354.71,70.87,346,70,342.77s.24-6.3,8.08-6.78,16.59,2,27.8,10.82c11.77,9.26,11.56,20.25,26.35,30.5s29,9.77,40.78,7.75a49,49,0,0,0,14-4.37c0-.49,0-.87,0-1.09,0-3.09.24-7.37,4.28-17.11s10.22-14,10.22-14-32.5-1.29-56.87-15.52c-22.26-13-52.37-30.58-52.37-91.17,0-52.28,25.12-75.57,25.12-75.57s-4.22-9-5.11-26.49c-.91-17.9,7.72-36,7.72-36a65.18,65.18,0,0,1,18.49.64c9.43,1.85,12.4,3.76,18.56,6.89,5.89,3,29.72,16.47,29.72,16.47a159.34,159.34,0,0,1,26.8-6.8c12.2-1.85,28.08-1.76,28.08-1.76s15.88-.09,28.08,1.76a159.34,159.34,0,0,1,26.8,6.8s23.83-13.48,29.72-16.47c6.16-3.13,9.13-5,18.56-6.89a65.18,65.18,0,0,1,18.49-.64s8.63,18.1,7.72,36c-.89,17.46-5.11,26.49-5.11,26.49s25.13,23.29,25.13,75.57C391.1,302.37,361,320,338.72,333c-24.37,14.23-56.87,15.52-56.87,15.52s6.18,4.28,10.22,14,4.28,14,4.28,17.11.71,36.35.71,36.35v42.78s.24,5,2.61,7.36c1,1,6.15,4,11.8,7.12,99.48-29.94,172-122.24,172-231.49C483.42,108.22,375.2,0,241.71,0Z"/><path class="cls-2" d="M96.89,347.82c0,1.14-1.36.5-3.14.32s-3.15-1.37-3.15-2.52,1.06-2.05,2.79-1.9S96.89,346.67,96.89,347.82Z"/><path class="cls-2" d="M106.25,353.92c.85,1.76,1.19,4.18.56,4.63-1.14.8-4.62-1.14-5.21-2.63a3.24,3.24,0,0,1,.86-3.78C103.71,351.24,105.28,351.9,106.25,353.92Z"/><path class="cls-2" d="M116.47,367.09c.4,2.4,1.16,4.34.18,4.81-1.48.72-5.83-2.08-6.1-4.12-.24-1.86.83-3.66,2.47-3.66A3.16,3.16,0,0,1,116.47,367.09Z"/><path class="cls-2" d="M128,380c.84,2.19,1.66,4.49.64,4.93-1.24.54-4.72-.62-5.82-2.82-.57-1.14-1-3.54.6-4.48C125.35,376.46,126.94,377.3,128,380Z"/><path class="cls-2" d="M147.12,392.67c-.18,1.39-3.16,1.85-5.55,1.55s-3.86-1.73-3.86-3.21.71-3.63,4.07-3.19C144.12,388.14,147.31,391.2,147.12,392.67Z"/><path class="cls-2" d="M166.39,393.89c0,1.08-2.8,3.63-6,3.6a3.2,3.2,0,0,1-3.34-3.06c0-2.19,1.38-3.07,4.18-3.07C163.37,391.36,166.39,392.8,166.39,393.89Z"/><path class="cls-2" d="M185.42,392c0,1.56-2.82,2.82-4.7,3.25-3.06.7-5.05-.23-4.7-2.82s2.76-2.82,4.7-2.82S185.42,391,185.42,392Z"/><path class="cls-3" d="M129.13,276.67s-48.46-2.14-65.57,0-37.07,9.27-37.07,9.27"/><path class="cls-3" d="M134.46,271.79s-48-7.05-65.22-6.66-37.82,5.45-37.82,5.45"/><path class="cls-3" d="M349.62,275.87s48.46-2.14,65.57,0,37.06,9.27,37.06,9.27"/><path class="cls-3" d="M344.28,271s48-7.05,65.23-6.66,37.82,5.45,37.82,5.45"/><path class="cls-4" d="M360.25,112.16,334,135.49s-2.51,2-2.45,4.16A6,6,0,0,0,334,144s4,3.19,11.32,8.83c7.47,5.74,16,10.95,16,10.95s4.48,2.55,7.61,1.92,4.3-4.44,4.3-4.44l12.62-65.1s1.34-5.1-1-7.07c-2.1-1.73-8.17.7-8.17.7l-80.95,30s-4.43,1.6-4.67,3.9a2.93,2.93,0,0,0,2.09,3.06l14.84,5.45a28.92,28.92,0,0,0,7.2,1.07,11.26,11.26,0,0,0,5.57-1.91l35.38-22c2.45-1.45,5.83-2.78,6.54-2S361.8,110.58,360.25,112.16Z"/><path class="cls-4" d="M123.44,112.16l26.29,23.33s2.51,2,2.45,4.16a6,6,0,0,1-2.44,4.36s-4,3.19-11.32,8.83-16,10.95-16,10.95-4.48,2.55-7.6,1.92-4.31-4.44-4.31-4.44L97.91,96.17s-1.34-5.1,1-7.07c2.1-1.73,8.17.7,8.17.7l81,30s4.43,1.6,4.67,3.9a2.92,2.92,0,0,1-2.09,3.06l-14.84,5.45a28.92,28.92,0,0,1-7.2,1.07,11.26,11.26,0,0,1-5.57-1.91l-35.38-22c-2.45-1.45-5.82-2.78-6.53-2S121.89,110.58,123.44,112.16Z"/><ellipse class="cls-2" cx="174.53" cy="237.14" rx="19.63" ry="29.23"/><ellipse class="cls-2" cx="308.17" cy="235.36" rx="19.63" ry="29.23"/></g></g></svg>