<?xml version="1.0" encoding="utf-8"?>
<!-- Generator: Adobe Illustrator 24.2.0, SVG Export Plug-In . SVG Version: 6.00 Build 0)  -->
<svg version="1.1" xmlns="http://www.w3.org/2000/svg" xmlns:xlink="http://www.w3.org/1999/xlink" x="0px" y="0px"
	 viewBox="0 0 595.3 841.9" style="enable-background:new 0 0 595.3 841.9;" xml:space="preserve">
<style type="text/css">
	.st0{display:none;}
	.st1{display:inline;}
	.st2{display:inline;fill:#FFFFFF;}
	.st3{display:inline;fill:#1FABE3;}
	.st4{fill:#FFFFFF;}
	.st5{fill:#0088C2;}
	.st6{fill:none;stroke:#FFFFFF;stroke-width:3;stroke-linecap:round;stroke-miterlimit:10;}
	.st7{fill:#1FABE3;}
</style>
<g id="GitHubLogo" class="st0">
	<ellipse class="st1" cx="297.6" cy="396.6" rx="241.7" ry="241.7"/>
	<path class="st2" d="M421.9,321.1c0,0,4.2-9,5.1-26.5c0.9-17.9-7.7-36-7.7-36s-9.2-1.2-18.5,0.6c-9.4,1.9-12.4,3.8-18.6,6.9
		c-5.9,3-29.7,16.5-29.7,16.5s-12.9-4.7-26.8-6.8c-12.2-1.8-28.1-1.8-28.1-1.8s-15.9-0.1-28.1,1.8c-13.9,2.1-26.8,6.8-26.8,6.8
		s-23.8-13.5-29.7-16.5c-6.2-3.1-9.1-5-18.6-6.9c-9.3-1.8-18.5-0.6-18.5-0.6s-8.6,18.1-7.7,36c0.9,17.5,5.1,26.5,5.1,26.5
		s-25.1,23.3-25.1,75.6c0,60.6,30.1,78.2,52.4,91.2c24.4,14.2,56.9,15.5,56.9,15.5s-6.2,4.3-10.2,14c-4,9.7-4.3,14-4.3,17.1
		c0,0.2,0,0.6,0,1.1c-2.8,1.4-7.3,3.2-14,4.4c-11.8,2-26,2.5-40.8-7.8c-14.8-10.2-14.6-21.2-26.3-30.5c-11.2-8.8-20-11.3-27.8-10.8
		c-7.8,0.5-8.9,3.6-8.1,6.8c0.8,3.2,19.1,11.9,30.8,33.4c12,22,13.1,26.5,31.4,36.2c13.3,7.1,39.1,4.5,54.2,2.2c0,0.9,0,1.4,0,1.4
		v42.8c0,0-0.2,5-2.6,7.4c-1,1-6.2,4-11.8,7.1c22.1,6.7,45.5,10.2,69.8,10.2s47.7-3.6,69.8-10.2c-5.7-3.1-10.8-6.1-11.8-7.1
		c-2.4-2.4-2.6-7.4-2.6-7.4v-42.8c0,0-0.7-33.3-0.7-36.4s-0.2-7.4-4.3-17.1c-4-9.7-10.2-14-10.2-14s32.5-1.3,56.9-15.5
		c22.3-13,52.4-30.6,52.4-91.2C447,344.4,421.9,321.1,421.9,321.1z"/>
	<path class="st1" d="M152.8,502.7c0,1.1-1.4,0.5-3.1,0.3c-1.7-0.2-3.1-1.4-3.1-2.5s1.1-2.1,2.8-1.9
		C151,498.7,152.8,501.5,152.8,502.7z"/>
	<path class="st1" d="M162.2,508.8c0.8,1.8,1.2,4.2,0.6,4.6c-1.1,0.8-4.6-1.1-5.2-2.6c-0.5-1.3-0.3-3,0.9-3.8
		C159.6,506.1,161.2,506.8,162.2,508.8z"/>
	<path class="st1" d="M172.4,522c0.4,2.4,1.2,4.3,0.2,4.8c-1.5,0.7-5.8-2.1-6.1-4.1c-0.2-1.9,0.8-3.7,2.5-3.7
		C170.6,519,172,519.7,172.4,522z"/>
	<path class="st1" d="M183.9,534.8c0.8,2.2,1.7,4.5,0.6,4.9c-1.2,0.5-4.7-0.6-5.8-2.8c-0.6-1.1-1-3.5,0.6-4.5
		C181.3,531.3,182.9,532.2,183.9,534.8z"/>
	<path class="st1" d="M203,547.5c-0.2,1.4-3.2,1.8-5.6,1.6c-2.3-0.3-3.9-1.7-3.9-3.2c0-1.5,0.7-3.6,4.1-3.2
		C200,543,203.2,546.1,203,547.5z"/>
	<path class="st1" d="M222.3,548.8c0,1.1-2.8,3.6-6,3.6c-2.1,0-3.3-1.6-3.3-3.1c0-2.2,1.4-3.1,4.2-3.1
		C219.3,546.2,222.3,547.7,222.3,548.8z"/>
	<path class="st1" d="M241.4,546.8c0,1.6-2.8,2.8-4.7,3.3c-3.1,0.7-5-0.2-4.7-2.8c0.3-2.5,2.8-2.8,4.7-2.8S241.4,545.9,241.4,546.8z
		"/>
</g>
<g id="TelegramIcon" class="st0">
	<ellipse class="st3" cx="297.6" cy="396.6" rx="241.7" ry="241.7"/>
	<path class="st2" d="M336.4,367.5L268,432.9c0,0-6.6,5.6-6.2,11.4c0.5,7.3,7,11.5,7,11.5s11.1,8.2,31.4,22.6
		c20.7,14.7,44.1,27.9,44.1,27.9s12.3,6.4,20.7,4.4c8.1-1.9,11.1-12.4,11.1-12.4l27.4-176.6c0,0,3.1-13.9-3.6-18.9
		c-5.8-4.5-21.9,2.7-21.9,2.7l-214.9,88.9c0,0-11.8,4.8-12.2,11c-0.4,6.4,5.9,8,5.9,8l40.5,13.2c0,0,11.2,2.7,19.5,2.1
		c8.3-0.6,14.8-5.7,14.8-5.7l93-62.9c6.5-4.2,15.4-8.1,17.4-6.1C343.9,355.9,340.4,363.1,336.4,367.5z"/>
</g>
<g id="FinalImage">
	<circle class="st4" cx="297.6" cy="396.6" r="240.9"/>
	<path class="st5" d="M297.6,154.9c-133.5,0-241.7,108.2-241.7,241.7c0,109.2,72.5,201.5,172,231.5c5.7-3.1,10.8-6.1,11.8-7.1
		c2.4-2.4,2.6-7.4,2.6-7.4v-42.8c0,0,0-0.5,0-1.4c-15.1,2.4-40.9,4.9-54.2-2.2c-18.3-9.7-19.4-14.3-31.4-36.2
		c-11.7-21.4-29.9-30.2-30.8-33.4c-0.8-3.2,0.2-6.3,8.1-6.8c7.8-0.5,16.6,2,27.8,10.8c11.8,9.3,11.6,20.3,26.3,30.5
		c14.8,10.2,29,9.8,40.8,7.8c6.7-1.1,11.2-3,14-4.4c0-0.5,0-0.9,0-1.1c0-3.1,0.2-7.4,4.3-17.1c4-9.7,10.2-14,10.2-14
		s-32.5-1.3-56.9-15.5c-22.3-13-52.4-30.6-52.4-91.2c0-52.3,25.1-75.6,25.1-75.6s-4.2-9-5.1-26.5c-0.9-17.9,7.7-36,7.7-36
		s9.2-1.2,18.5,0.6c9.4,1.9,12.4,3.8,18.6,6.9c5.9,3,29.7,16.5,29.7,16.5s12.9-4.7,26.8-6.8c12.2-1.8,28.1-1.8,28.1-1.8
		s15.9-0.1,28.1,1.8c13.9,2.1,26.8,6.8,26.8,6.8s23.8-13.5,29.7-16.5c6.2-3.1,9.1-5,18.6-6.9c9.3-1.8,18.5-0.6,18.5-0.6
		s8.6,18.1,7.7,36c-0.9,17.5-5.1,26.5-5.1,26.5s25.1,23.3,25.1,75.6c0,60.6-30.1,78.2-52.4,91.2c-24.4,14.2-56.9,15.5-56.9,15.5
		s6.2,4.3,10.2,14c4,9.7,4.3,14,4.3,17.1s0.7,36.4,0.7,36.4v42.8c0,0,0.2,5,2.6,7.4c1,1,6.1,4,11.8,7.1
		c99.5-29.9,172-122.2,172-231.5C539.3,263.1,431.1,154.9,297.6,154.9z"/>
	<path class="st5" d="M152.8,502.7c0,1.1-1.4,0.5-3.1,0.3c-1.7-0.2-3.1-1.4-3.1-2.5s1.1-2.1,2.8-1.9
		C151,498.7,152.8,501.5,152.8,502.7z"/>
	<path class="st5" d="M162.2,508.8c0.8,1.8,1.2,4.2,0.6,4.6c-1.1,0.8-4.6-1.1-5.2-2.6c-0.5-1.3-0.3-3,0.9-3.8
		C159.6,506.1,161.2,506.8,162.2,508.8z"/>
	<path class="st5" d="M172.4,522c0.4,2.4,1.2,4.3,0.2,4.8c-1.5,0.7-5.8-2.1-6.1-4.1c-0.2-1.9,0.8-3.7,2.5-3.7
		C170.6,519,172,519.7,172.4,522z"/>
	<path class="st5" d="M183.9,534.8c0.8,2.2,1.7,4.5,0.6,4.9c-1.2,0.5-4.7-0.6-5.8-2.8c-0.6-1.1-1-3.5,0.6-4.5
		C181.3,531.3,182.9,532.2,183.9,534.8z"/>
	<path class="st5" d="M203,547.5c-0.2,1.4-3.2,1.8-5.6,1.6c-2.3-0.3-3.9-1.7-3.9-3.2c0-1.5,0.7-3.6,4.1-3.2
		C200,543,203.2,546.1,203,547.5z"/>
	<path class="st5" d="M222.3,548.8c0,1.1-2.8,3.6-6,3.6c-2.1,0-3.3-1.6-3.3-3.1c0-2.2,1.4-3.1,4.2-3.1
		C219.3,546.2,222.3,547.7,222.3,548.8z"/>
	<path class="st5" d="M241.4,546.8c0,1.6-2.8,2.8-4.7,3.3c-3.1,0.7-5-0.2-4.7-2.8c0.3-2.5,2.8-2.8,4.7-2.8S241.4,545.9,241.4,546.8z
		"/>
	<path class="st6" d="M185.1,431.6c0,0-48.5-2.1-65.6,0s-37.1,9.3-37.1,9.3"/>
	<path class="st6" d="M190.4,426.7c0,0-48-7.1-65.2-6.7s-37.8,5.5-37.8,5.5"/>
	<path class="st6" d="M405.6,430.7c0,0,48.5-2.1,65.6,0c17.1,2.1,37.1,9.3,37.1,9.3"/>
	<path class="st6" d="M400.2,425.9c0,0,48-7.1,65.2-6.7c17.2,0.4,37.8,5.5,37.8,5.5"/>
	<path class="st7" d="M416.2,267l-26.3,23.3c0,0-2.5,2-2.4,4.2c0.1,2.7,2.4,4.4,2.4,4.4s4,3.2,11.3,8.8c7.5,5.7,16,11,16,11
		s4.5,2.5,7.6,1.9c3-0.6,4.3-4.4,4.3-4.4l12.6-65.1c0,0,1.3-5.1-1.1-7.1c-2.1-1.7-8.2,0.7-8.2,0.7l-80.9,30c0,0-4.4,1.6-4.7,3.9
		c-0.2,2.4,2.1,3.1,2.1,3.1l14.8,5.5c0,0,4.1,1.2,7.2,1.1c3.1-0.1,5.6-1.9,5.6-1.9l35.4-22c2.5-1.5,5.8-2.8,6.5-2
		C419.1,262.9,417.7,265.5,416.2,267z"/>
	<path class="st7" d="M179.4,267l26.3,23.3c0,0,2.5,2,2.4,4.2c-0.1,2.7-2.4,4.4-2.4,4.4s-4,3.2-11.3,8.8c-7.5,5.7-16,11-16,11
		s-4.5,2.5-7.6,1.9c-3-0.6-4.3-4.4-4.3-4.4L153.8,251c0,0-1.3-5.1,1.1-7.1c2.1-1.7,8.2,0.7,8.2,0.7l80.9,30c0,0,4.4,1.6,4.7,3.9
		c0.2,2.4-2.1,3.1-2.1,3.1l-14.8,5.5c0,0-4.1,1.2-7.2,1.1c-3.1-0.1-5.6-1.9-5.6-1.9l-35.4-22c-2.5-1.5-5.8-2.8-6.5-2
		C176.4,262.9,177.8,265.5,179.4,267z"/>
	<ellipse class="st5" cx="230.5" cy="392" rx="19.6" ry="29.2"/>
	<ellipse class="st5" cx="364.1" cy="390.2" rx="19.6" ry="29.2"/>
</g>
</svg>
